<svg xmlns="http://www.w3.org/2000/svg" width="33.435" height="42.676" viewBox="0 0 33.435 42.676">
  <g id="Group_63291" data-name="Group 63291" transform="translate(-81.7 -33.458)">
    <path id="Path_20371" data-name="Path 20371" d="M114.627,33.577a.963.963,0,0,0-.988.058l-4.623,3.146-4.8-3.156a.958.958,0,0,0-1.055,0l-4.748,3.156-4.738-3.156a.958.958,0,0,0-1.055,0l-4.8,3.156L83.2,33.625a.963.963,0,0,0-.988-.058.944.944,0,0,0-.508.844V75.175a.962.962,0,0,0,.959.959h31.517a.962.962,0,0,0,.959-.959V34.412A.94.94,0,0,0,114.627,33.577Zm-1.41,40.648h-29.6V36.234l3.664,2.494a.956.956,0,0,0,1.065.01l4.8-3.165,4.748,3.156a.974.974,0,0,0,1.065,0l4.738-3.156,4.8,3.165a.956.956,0,0,0,1.065-.01l3.664-2.494Z"/>
    <path id="Path_20372" data-name="Path 20372" d="M177.609,167.4H162.072a.959.959,0,1,0,0,1.918h15.538a.959.959,0,1,0,0-1.918Zm-8.009-6.378a2.542,2.542,0,1,0-2.542,2.542A2.542,2.542,0,0,0,169.6,161.024Zm-3.165,0a.622.622,0,1,1,.182.441A.623.623,0,0,1,166.436,161.024Zm11.452,0a2.542,2.542,0,1,0-2.542,2.542A2.542,2.542,0,0,0,177.888,161.024Zm-3.165,0a.622.622,0,1,1,.182.441A.623.623,0,0,1,174.723,161.024Zm3.3-13.4H165.381l-.2-1.218A2.886,2.886,0,0,0,162.321,144h-.662a.959.959,0,0,0,0,1.918h.662a.987.987,0,0,1,.969.815l1.554,9.16A2.886,2.886,0,0,0,167.7,158.3h8.843a.959.959,0,0,0,0-1.918H167.7a.987.987,0,0,1-.969-.815l-.01-.077h8.009a2.893,2.893,0,0,0,2.762-2.024l1.448-4.594a.938.938,0,0,0-.144-.854A.986.986,0,0,0,178.022,147.625Zm-2.359,5.266a.967.967,0,0,1-.93.681H166.4l-.681-4.028h11Z" transform="translate(-71.423 -99.939)"/>
  </g>
</svg>
