<svg id="Group_58745" data-name="Group 58745" xmlns="http://www.w3.org/2000/svg" width="28.37" height="27.356" viewBox="0 0 28.37 27.356">
  <path id="Path_10718" data-name="Path 10718" d="M25.317,5.04V2H23.29V5.04H19.238V2H17.211V5.04H13.158V2H11.132V5.04H7.079V2H5.053V5.04H1V29.356H29.37V5.04ZM5.053,7.066V9.092H7.079V7.066h4.053V9.092h2.026V7.066h4.053V9.092h2.026V7.066H23.29V9.092h2.026V7.066h2.026v4.053H3.026V7.066ZM3.026,27.33V13.145H27.343V27.33Z" transform="translate(-1 -2)"/>
  <rect id="Rectangle_17968" data-name="Rectangle 17968" width="2.474" height="2.474" transform="translate(9.814 14.986)"/>
  <rect id="Rectangle_17969" data-name="Rectangle 17969" width="1.237" height="2.474" transform="translate(14.762 14.986)"/>
  <rect id="Rectangle_17970" data-name="Rectangle 17970" width="1.237" height="2.474" transform="translate(18.473 14.986)"/>
  <rect id="Rectangle_17971" data-name="Rectangle 17971" width="2.474" height="2.474" transform="translate(6.103 18.697)"/>
  <rect id="Rectangle_17972" data-name="Rectangle 17972" width="2.474" height="2.474" transform="translate(9.814 18.697)"/>
  <rect id="Rectangle_17973" data-name="Rectangle 17973" width="1.237" height="2.474" transform="translate(14.762 18.697)"/>
</svg>
