<svg xmlns="http://www.w3.org/2000/svg" width="26.876" height="31.353" viewBox="0 0 26.876 31.353">
  <g id="Location" transform="translate(-4 -2.002)">
    <path id="Path_20359" data-name="Path 20359" d="M17.6,15.949a1.12,1.12,0,0,0-1.12-1.12,2.24,2.24,0,1,1,2.24-2.24,1.12,1.12,0,1,0,2.24,0,4.479,4.479,0,1,0-4.479,4.479A1.12,1.12,0,0,0,17.6,15.949Z" transform="translate(0.959 0.732)"/>
    <path id="Path_20360" data-name="Path 20360" d="M23.956,22.818l1.489-1.489a11.322,11.322,0,1,0-16.014,0l1.489,1.489C6.6,23.747,4,25.517,4,27.756c0,3.673,6.719,5.6,13.438,5.6s13.438-1.926,13.438-5.6C30.876,25.517,28.278,23.747,23.956,22.818Zm-6.518,8.3c-6.719,0-11.2-2.027-11.2-3.36,0-.84,2.128-2.329,6.618-3l.952.952a1.12,1.12,0,0,0,1.579-1.579L11.01,19.749a9.082,9.082,0,1,1,12.845,0l-7.212,7.212a1.12,1.12,0,1,0,1.579,1.579l3.8-3.8c4.479.672,6.618,2.161,6.618,3C28.637,29.089,24.157,31.116,17.438,31.116Z" transform="translate(0 0)"/>
  </g>
</svg>
